<?xml version="1.0" encoding="us-ascii" standalone="no"?><svg xmlns="http://www.w3.org/2000/svg" xmlns:xlink="http://www.w3.org/1999/xlink" contentStyleType="text/css" height="950px" preserveAspectRatio="none" style="width:1079px;height:950px;background:#FFFFFF;" version="1.1" viewBox="0 0 1079 950" width="1079px" zoomAndPan="magnify"><defs/><g><!--cluster channel--><g id="cluster_channel"><path d="M557.5,6.0137 L670.5,6.0137 A3.75,3.75 0 0 1 673,8.5137 L680,30.6348 L1069.5,30.6348 A2.5,2.5 0 0 1 1072,33.1348 L1072,940.5137 A2.5,2.5 0 0 1 1069.5,943.0137 L557.5,943.0137 A2.5,2.5 0 0 1 555,940.5137 L555,8.5137 A2.5,2.5 0 0 1 557.5,6.0137 " fill="none" style="stroke:#000000;stroke-width:1.5;"/><line style="stroke:#000000;stroke-width:1.5;" x1="555" x2="680" y1="30.6348" y2="30.6348"/><text fill="#000000" font-family="sans-serif" font-size="14" font-weight="bold" lengthAdjust="spacing" textLength="112" x="559" y="23.1211">io.netty.channel</text></g><!--cluster nio--><g id="cluster_nio"><path d="M581.5,416.0137 L604.5,416.0137 A3.75,3.75 0 0 1 607,418.5137 L614,440.6348 L1045.5,440.6348 A2.5,2.5 0 0 1 1048,443.1348 L1048,766.5137 A2.5,2.5 0 0 1 1045.5,769.0137 L581.5,769.0137 A2.5,2.5 0 0 1 579,766.5137 L579,418.5137 A2.5,2.5 0 0 1 581.5,416.0137 " fill="none" style="stroke:#000000;stroke-width:1.5;"/><line style="stroke:#000000;stroke-width:1.5;" x1="579" x2="614" y1="440.6348" y2="440.6348"/><text fill="#000000" font-family="sans-serif" font-size="14" font-weight="bold" lengthAdjust="spacing" textLength="22" x="583" y="433.1211">nio</text></g><!--cluster nio--><g id="cluster_nio"><path d="M590.5,834.0137 L664.5,834.0137 A3.75,3.75 0 0 1 667,836.5137 L674,858.6348 L990.5,858.6348 A2.5,2.5 0 0 1 993,861.1348 L993,916.5137 A2.5,2.5 0 0 1 990.5,919.0137 L590.5,919.0137 A2.5,2.5 0 0 1 588,916.5137 L588,836.5137 A2.5,2.5 0 0 1 590.5,834.0137 " fill="none" style="stroke:#000000;stroke-width:1.5;"/><line style="stroke:#000000;stroke-width:1.5;" x1="588" x2="674" y1="858.6348" y2="858.6348"/><text fill="#000000" font-family="sans-serif" font-size="14" font-weight="bold" lengthAdjust="spacing" textLength="73" x="592" y="851.1211">socket.nio</text></g><!--cluster channels--><g id="cluster_channels"><path d="M8.5,242.5137 L132.5,242.5137 A3.75,3.75 0 0 1 135,245.0137 L142,267.1348 L528.5,267.1348 A2.5,2.5 0 0 1 531,269.6348 L531,807.5137 A2.5,2.5 0 0 1 528.5,810.0137 L8.5,810.0137 A2.5,2.5 0 0 1 6,807.5137 L6,245.0137 A2.5,2.5 0 0 1 8.5,242.5137 " fill="none" style="stroke:#000000;stroke-width:1.5;"/><line style="stroke:#000000;stroke-width:1.5;" x1="6" x2="142" y1="267.1348" y2="267.1348"/><text fill="#000000" font-family="sans-serif" font-size="14" font-weight="bold" lengthAdjust="spacing" textLength="123" x="10" y="259.6211">java.nio.channels</text></g><!--cluster spi--><g id="cluster_spi"><path d="M91.5,470.0137 L113.5,470.0137 A3.75,3.75 0 0 1 116,472.5137 L123,494.6348 L444.5,494.6348 A2.5,2.5 0 0 1 447,497.1348 L447,579.5137 A2.5,2.5 0 0 1 444.5,582.0137 L91.5,582.0137 A2.5,2.5 0 0 1 89,579.5137 L89,472.5137 A2.5,2.5 0 0 1 91.5,470.0137 " fill="none" style="stroke:#000000;stroke-width:1.5;"/><line style="stroke:#000000;stroke-width:1.5;" x1="89" x2="123" y1="494.6348" y2="494.6348"/><text fill="#000000" font-family="sans-serif" font-size="14" font-weight="bold" lengthAdjust="spacing" textLength="21" x="93" y="487.1211">spi</text></g><!--class AbstractChannel--><g id="elem_AbstractChannel"><rect codeLine="1" fill="#F1F1F1" height="167.7266" id="AbstractChannel" rx="2.5" ry="2.5" style="stroke:#181818;stroke-width:0.5;" width="231" x="608.5" y="225.0137"/><ellipse cx="667.25" cy="241.0137" fill="#A9DCDF" rx="11" ry="11" style="stroke:#181818;stroke-width:1.0;"/><path d="M667.6719,241.498 L665.1094,241.498 L664.5781,243.7949 Q664.5156,244.123 664.5156,244.2793 Q664.5156,244.498 664.5625,244.6543 Q664.625,244.8105 664.9063,244.8105 L665.375,244.8105 L665.375,245.748 L662.3906,245.748 L662.3906,244.8105 L662.8438,244.8105 Q663.0156,244.8105 663.1406,244.7168 Q663.2656,244.6074 663.3125,244.3105 L665.9531,233.9824 L667.3594,233.5137 L669.9375,244.2793 Q670.0469,244.5918 670.1719,244.7012 Q670.3125,244.8105 670.4844,244.8105 L670.9531,244.8105 L670.9531,245.748 L667.5625,245.748 L667.5625,244.8105 L668.0938,244.8105 Q668.3125,244.8105 668.3281,244.7637 Q668.3594,244.7012 668.3594,244.623 Q668.3594,244.4043 668.3125,244.2168 L667.6719,241.498 Z M663.1094,245.3418 L663.1094,245.3418 Z M663.7813,245.3418 L663.7813,245.3418 Z M668.5,245.3418 L668.5,245.3418 Z M669.625,245.3418 L669.625,245.3418 Z M666.4375,235.4043 L666.5,235.4043 L665.3906,240.5605 L667.4844,240.5605 L666.4375,235.4043 Z " fill="#000000"/><text fill="#000000" font-family="sans-serif" font-size="14" font-style="italic" lengthAdjust="spacing" textLength="105" x="687.75" y="246.8105">AbstractChannel</text><line style="stroke:#181818;stroke-width:0.5;" x1="609.5" x2="838.5" y1="257.0137" y2="257.0137"/><rect fill="none" height="6" style="stroke:#C82930;stroke-width:1.0;" width="6" x="616.5" y="268.8242"/><text fill="#000000" font-family="sans-serif" font-size="14" lengthAdjust="spacing" textLength="83" x="628.5" y="276.1211">id: ChannelId</text><rect fill="none" height="6" style="stroke:#C82930;stroke-width:1.0;" width="6" x="616.5" y="287.4453"/><text fill="#000000" font-family="sans-serif" font-size="14" lengthAdjust="spacing" textLength="102" x="628.5" y="294.7422">parent: Channel</text><rect fill="none" height="6" style="stroke:#C82930;stroke-width:1.0;" width="6" x="616.5" y="328.6875"/><text fill="#000000" font-family="sans-serif" font-size="14" lengthAdjust="spacing" textLength="205" x="628.5" y="335.9844">pipeline: DefaultChannelPipeline</text><line style="stroke:#181818;stroke-width:1.0;stroke-dasharray:1.0,2.0;" x1="609.5" x2="699.5" y1="311.5664" y2="311.5664"/><text fill="#000000" font-family="sans-serif" font-size="14" lengthAdjust="spacing" textLength="49" x="699.5" y="316.8633">pipeline</text><line style="stroke:#181818;stroke-width:1.0;stroke-dasharray:1.0,2.0;" x1="748.5" x2="838.5" y1="311.5664" y2="311.5664"/><rect fill="none" height="6" style="stroke:#C82930;stroke-width:1.0;" width="6" x="616.5" y="369.9297"/><text fill="#000000" font-family="sans-serif" font-size="14" lengthAdjust="spacing" textLength="143" x="628.5" y="377.2266">eventLoop: EventLoop</text><line style="stroke:#181818;stroke-width:1.0;stroke-dasharray:1.0,2.0;" x1="609.5" x2="693" y1="352.8086" y2="352.8086"/><text fill="#000000" font-family="sans-serif" font-size="14" lengthAdjust="spacing" textLength="62" x="693" y="358.1055">eventloop</text><line style="stroke:#181818;stroke-width:1.0;stroke-dasharray:1.0,2.0;" x1="755" x2="838.5" y1="352.8086" y2="352.8086"/><line style="stroke:#181818;stroke-width:1.0;" x1="609.5" x2="838.5" y1="384.7402" y2="384.7402"/></g><!--class Channel--><g id="elem_Channel"><rect codeLine="1" fill="#F1F1F1" height="122.4844" id="Channel" rx="2.5" ry="2.5" style="stroke:#181818;stroke-width:0.5;" width="196" x="626" y="43.0137"/><ellipse cx="693.25" cy="59.0137" fill="#B4A7E5" rx="11" ry="11" style="stroke:#181818;stroke-width:1.0;"/><path d="M689.8438,53.7949 L689.8438,52.8574 L695.6875,52.8574 L695.6875,53.7949 L693.8906,53.7949 Q693.7188,53.7949 693.6406,53.8574 Q693.5625,53.9199 693.5625,54.0605 L693.5625,63.5449 Q693.5625,63.6855 693.6406,63.748 Q693.7188,63.8105 693.8906,63.8105 L695.6875,63.8105 L695.6875,64.748 L689.8438,64.748 L689.8438,63.8105 L691.6406,63.8105 Q691.8594,63.8105 691.9063,63.7637 Q691.9688,63.7012 691.9688,63.5449 L691.9688,54.0605 Q691.9688,53.9043 691.9063,53.8574 Q691.8594,53.7949 691.6406,53.7949 L689.8438,53.7949 Z " fill="#000000"/><text fill="#000000" font-family="sans-serif" font-size="14" font-style="italic" lengthAdjust="spacing" textLength="53" x="713.75" y="64.8105">Channel</text><line style="stroke:#181818;stroke-width:0.5;" x1="627" x2="821" y1="75.0137" y2="75.0137"/><ellipse cx="637" cy="112.4453" fill="#84BE84" rx="3" ry="3" style="stroke:#038048;stroke-width:1.0;"/><text fill="#000000" font-family="sans-serif" font-size="14" font-style="italic" lengthAdjust="spacing" textLength="170" x="646" y="116.7422">pipeline(): ChannelPipeline</text><line style="stroke:#181818;stroke-width:1.0;stroke-dasharray:1.0,2.0;" x1="627" x2="699.5" y1="92.3242" y2="92.3242"/><text fill="#000000" font-family="sans-serif" font-size="14" lengthAdjust="spacing" textLength="49" x="699.5" y="97.6211">pipeline</text><line style="stroke:#181818;stroke-width:1.0;stroke-dasharray:1.0,2.0;" x1="748.5" x2="821" y1="92.3242" y2="92.3242"/><ellipse cx="637" cy="153.6875" fill="#84BE84" rx="3" ry="3" style="stroke:#038048;stroke-width:1.0;"/><text fill="#000000" font-family="sans-serif" font-size="14" font-style="italic" lengthAdjust="spacing" textLength="151" x="646" y="157.9844">eventLoop(): EventLoop</text><line style="stroke:#181818;stroke-width:1.0;stroke-dasharray:1.0,2.0;" x1="627" x2="693" y1="133.5664" y2="133.5664"/><text fill="#000000" font-family="sans-serif" font-size="14" lengthAdjust="spacing" textLength="62" x="693" y="138.8633">eventloop</text><line style="stroke:#181818;stroke-width:1.0;stroke-dasharray:1.0,2.0;" x1="755" x2="821" y1="133.5664" y2="133.5664"/></g><!--class AbstractNioByteChannel--><g id="elem_AbstractNioByteChannel"><rect codeLine="1" fill="#F1F1F1" height="32" id="AbstractNioByteChannel" rx="2.5" ry="2.5" style="stroke:#181818;stroke-width:0.5;" width="186" x="595" y="721.0137"/><ellipse cx="610" cy="737.0137" fill="#A9DCDF" rx="11" ry="11" style="stroke:#181818;stroke-width:1.0;"/><path d="M610.4219,737.498 L607.8594,737.498 L607.3281,739.7949 Q607.2656,740.123 607.2656,740.2793 Q607.2656,740.498 607.3125,740.6543 Q607.375,740.8105 607.6563,740.8105 L608.125,740.8105 L608.125,741.748 L605.1406,741.748 L605.1406,740.8105 L605.5938,740.8105 Q605.7656,740.8105 605.8906,740.7168 Q606.0156,740.6074 606.0625,740.3105 L608.7031,729.9824 L610.1094,729.5137 L612.6875,740.2793 Q612.7969,740.5918 612.9219,740.7012 Q613.0625,740.8105 613.2344,740.8105 L613.7031,740.8105 L613.7031,741.748 L610.3125,741.748 L610.3125,740.8105 L610.8438,740.8105 Q611.0625,740.8105 611.0781,740.7637 Q611.1094,740.7012 611.1094,740.623 Q611.1094,740.4043 611.0625,740.2168 L610.4219,737.498 Z M605.8594,741.3418 L605.8594,741.3418 Z M606.5313,741.3418 L606.5313,741.3418 Z M611.25,741.3418 L611.25,741.3418 Z M612.375,741.3418 L612.375,741.3418 Z M609.1875,731.4043 L609.25,731.4043 L608.1406,736.5605 L610.2344,736.5605 L609.1875,731.4043 Z " fill="#000000"/><text fill="#000000" font-family="sans-serif" font-size="14" font-style="italic" lengthAdjust="spacing" textLength="154" x="624" y="742.8105">AbstractNioByteChannel</text></g><!--class AbstractNioChannel--><g id="elem_AbstractNioChannel"><rect codeLine="1" fill="#F1F1F1" height="159.7266" id="AbstractNioChannel" rx="2.5" ry="2.5" style="stroke:#181818;stroke-width:0.5;" width="242" x="603" y="457.0137"/><ellipse cx="656.75" cy="473.0137" fill="#A9DCDF" rx="11" ry="11" style="stroke:#181818;stroke-width:1.0;"/><path d="M657.1719,473.498 L654.6094,473.498 L654.0781,475.7949 Q654.0156,476.123 654.0156,476.2793 Q654.0156,476.498 654.0625,476.6543 Q654.125,476.8105 654.4063,476.8105 L654.875,476.8105 L654.875,477.748 L651.8906,477.748 L651.8906,476.8105 L652.3438,476.8105 Q652.5156,476.8105 652.6406,476.7168 Q652.7656,476.6074 652.8125,476.3105 L655.4531,465.9824 L656.8594,465.5137 L659.4375,476.2793 Q659.5469,476.5918 659.6719,476.7012 Q659.8125,476.8105 659.9844,476.8105 L660.4531,476.8105 L660.4531,477.748 L657.0625,477.748 L657.0625,476.8105 L657.5938,476.8105 Q657.8125,476.8105 657.8281,476.7637 Q657.8594,476.7012 657.8594,476.623 Q657.8594,476.4043 657.8125,476.2168 L657.1719,473.498 Z M652.6094,477.3418 L652.6094,477.3418 Z M653.2813,477.3418 L653.2813,477.3418 Z M658,477.3418 L658,477.3418 Z M659.125,477.3418 L659.125,477.3418 Z M655.9375,467.4043 L656,467.4043 L654.8906,472.5605 L656.9844,472.5605 L655.9375,467.4043 Z " fill="#000000"/><text fill="#000000" font-family="sans-serif" font-size="14" font-style="italic" lengthAdjust="spacing" textLength="126" x="677.25" y="478.8105">AbstractNioChannel</text><line style="stroke:#181818;stroke-width:0.5;" x1="604" x2="844" y1="489.0137" y2="489.0137"/><rect fill="none" height="6" style="stroke:#C82930;stroke-width:1.0;" width="6" x="611" y="500.8242"/><text fill="#000000" font-family="sans-serif" font-size="14" lengthAdjust="spacing" textLength="142" x="623" y="508.1211">ch: SelectableChannel</text><polygon fill="none" points="614,517.4453,618,521.4453,614,525.4453,610,521.4453" style="stroke:#B38D22;stroke-width:1.0;"/><text fill="#000000" font-family="sans-serif" font-size="14" lengthAdjust="spacing" textLength="118" x="623" y="526.7422">readInterestOp: int</text><polygon fill="none" points="614,537.0664,610,543.0664,618,543.0664" style="stroke:#1963A0;stroke-width:1.0;"/><text fill="#000000" font-family="sans-serif" font-size="14" lengthAdjust="spacing" textLength="170" x="623" y="545.3633">selectionKey: SelectionKey</text><line style="stroke:#181818;stroke-width:1.0;" x1="604" x2="844" y1="552.877" y2="552.877"/><polygon fill="#FFFF44" points="614,562.6875,618,566.6875,614,570.6875,610,566.6875" style="stroke:#B38D22;stroke-width:1.0;"/><text fill="#000000" font-family="sans-serif" font-size="14" lengthAdjust="spacing" textLength="216" x="623" y="571.9844">javaChannel(): SelectableChannel</text><polygon fill="#FFFF44" points="614,581.3086,618,585.3086,614,589.3086,610,585.3086" style="stroke:#B38D22;stroke-width:1.0;"/><text fill="#000000" font-family="sans-serif" font-size="14" lengthAdjust="spacing" textLength="180" x="623" y="590.6055">selectionKey(): SelectionKey</text><ellipse cx="614" cy="604.9297" fill="#84BE84" rx="3" ry="3" style="stroke:#038048;stroke-width:1.0;"/><text fill="#000000" font-family="sans-serif" font-size="14" lengthAdjust="spacing" textLength="153" x="623" y="609.2266">eventLoop(): EventLoop</text></g><!--class AbstractNioMessageChannel--><g id="elem_AbstractNioMessageChannel"><rect codeLine="1" fill="#F1F1F1" height="32" id="AbstractNioMessageChannel" rx="2.5" ry="2.5" style="stroke:#181818;stroke-width:0.5;" width="216" x="816" y="721.0137"/><ellipse cx="831" cy="737.0137" fill="#A9DCDF" rx="11" ry="11" style="stroke:#181818;stroke-width:1.0;"/><path d="M831.4219,737.498 L828.8594,737.498 L828.3281,739.7949 Q828.2656,740.123 828.2656,740.2793 Q828.2656,740.498 828.3125,740.6543 Q828.375,740.8105 828.6563,740.8105 L829.125,740.8105 L829.125,741.748 L826.1406,741.748 L826.1406,740.8105 L826.5938,740.8105 Q826.7656,740.8105 826.8906,740.7168 Q827.0156,740.6074 827.0625,740.3105 L829.7031,729.9824 L831.1094,729.5137 L833.6875,740.2793 Q833.7969,740.5918 833.9219,740.7012 Q834.0625,740.8105 834.2344,740.8105 L834.7031,740.8105 L834.7031,741.748 L831.3125,741.748 L831.3125,740.8105 L831.8438,740.8105 Q832.0625,740.8105 832.0781,740.7637 Q832.1094,740.7012 832.1094,740.623 Q832.1094,740.4043 832.0625,740.2168 L831.4219,737.498 Z M826.8594,741.3418 L826.8594,741.3418 Z M827.5313,741.3418 L827.5313,741.3418 Z M832.25,741.3418 L832.25,741.3418 Z M833.375,741.3418 L833.375,741.3418 Z M830.1875,731.4043 L830.25,731.4043 L829.1406,736.5605 L831.2344,736.5605 L830.1875,731.4043 Z " fill="#000000"/><text fill="#000000" font-family="sans-serif" font-size="14" font-style="italic" lengthAdjust="spacing" textLength="184" x="845" y="742.8105">AbstractNioMessageChannel</text></g><!--class NioServerSocketChannel--><g id="elem_NioServerSocketChannel"><rect codeLine="1" fill="#F1F1F1" height="32" id="NioServerSocketChannel" rx="2.5" ry="2.5" style="stroke:#181818;stroke-width:0.5;" width="190" x="787" y="871.0137"/><ellipse cx="802" cy="887.0137" fill="#ADD1B2" rx="11" ry="11" style="stroke:#181818;stroke-width:1.0;"/><path d="M801.3438,892.873 Q799.3594,892.873 798.1875,891.4043 Q797.0313,889.9199 797.0313,886.8418 Q797.0313,884.2324 798.25,882.4824 Q799.4844,880.7324 801.6094,880.7324 Q802.1094,880.7324 802.6406,880.873 Q803.0781,881.0605 803.3438,881.0605 Q803.5625,881.0605 803.6563,881.0137 Q803.7656,880.9668 804.2188,880.373 L804.9844,884.1074 L804.0938,884.373 Q803.6406,882.9199 803.0313,882.3262 Q802.4375,881.7168 801.4844,881.7168 Q800.2656,881.7168 799.5469,883.1543 Q798.8281,884.5762 798.8281,886.7637 Q798.8281,889.1699 799.4375,890.4668 Q800.0625,891.748 801.4219,891.748 Q802.375,891.748 803.0625,891.0605 Q803.75,890.3574 804.0781,888.8574 L804.9844,889.2637 Q804.5781,890.9668 803.6094,891.9199 Q802.6563,892.873 801.3438,892.873 Z " fill="#000000"/><text fill="#000000" font-family="sans-serif" font-size="14" lengthAdjust="spacing" textLength="158" x="816" y="892.8105">NioServerSocketChannel</text></g><!--class NioSocketChannel--><g id="elem_NioSocketChannel"><rect codeLine="1" fill="#F1F1F1" height="32" id="NioSocketChannel" rx="2.5" ry="2.5" style="stroke:#181818;stroke-width:0.5;" width="148" x="604" y="871.0137"/><ellipse cx="619" cy="887.0137" fill="#ADD1B2" rx="11" ry="11" style="stroke:#181818;stroke-width:1.0;"/><path d="M618.3438,892.873 Q616.3594,892.873 615.1875,891.4043 Q614.0313,889.9199 614.0313,886.8418 Q614.0313,884.2324 615.25,882.4824 Q616.4844,880.7324 618.6094,880.7324 Q619.1094,880.7324 619.6406,880.873 Q620.0781,881.0605 620.3438,881.0605 Q620.5625,881.0605 620.6563,881.0137 Q620.7656,880.9668 621.2188,880.373 L621.9844,884.1074 L621.0938,884.373 Q620.6406,882.9199 620.0313,882.3262 Q619.4375,881.7168 618.4844,881.7168 Q617.2656,881.7168 616.5469,883.1543 Q615.8281,884.5762 615.8281,886.7637 Q615.8281,889.1699 616.4375,890.4668 Q617.0625,891.748 618.4219,891.748 Q619.375,891.748 620.0625,891.0605 Q620.75,890.3574 621.0781,888.8574 L621.9844,889.2637 Q621.5781,890.9668 620.6094,891.9199 Q619.6563,892.873 618.3438,892.873 Z " fill="#000000"/><text fill="#000000" font-family="sans-serif" font-size="14" lengthAdjust="spacing" textLength="116" x="633" y="892.8105">NioSocketChannel</text></g><!--class SelectableChannel--><g id="elem_SelectableChannel"><rect codeLine="1" fill="#F1F1F1" height="58.6211" id="SelectableChannel" rx="2.5" ry="2.5" style="stroke:#181818;stroke-width:0.5;" width="298" x="119" y="279.5137"/><ellipse cx="204.25" cy="295.5137" fill="#A9DCDF" rx="11" ry="11" style="stroke:#181818;stroke-width:1.0;"/><path d="M204.6719,295.998 L202.1094,295.998 L201.5781,298.2949 Q201.5156,298.623 201.5156,298.7793 Q201.5156,298.998 201.5625,299.1543 Q201.625,299.3105 201.9063,299.3105 L202.375,299.3105 L202.375,300.248 L199.3906,300.248 L199.3906,299.3105 L199.8438,299.3105 Q200.0156,299.3105 200.1406,299.2168 Q200.2656,299.1074 200.3125,298.8105 L202.9531,288.4824 L204.3594,288.0137 L206.9375,298.7793 Q207.0469,299.0918 207.1719,299.2012 Q207.3125,299.3105 207.4844,299.3105 L207.9531,299.3105 L207.9531,300.248 L204.5625,300.248 L204.5625,299.3105 L205.0938,299.3105 Q205.3125,299.3105 205.3281,299.2637 Q205.3594,299.2012 205.3594,299.123 Q205.3594,298.9043 205.3125,298.7168 L204.6719,295.998 Z M200.1094,299.8418 L200.1094,299.8418 Z M200.7813,299.8418 L200.7813,299.8418 Z M205.5,299.8418 L205.5,299.8418 Z M206.625,299.8418 L206.625,299.8418 Z M203.4375,289.9043 L203.5,289.9043 L202.3906,295.0605 L204.4844,295.0605 L203.4375,289.9043 Z " fill="#000000"/><text fill="#000000" font-family="sans-serif" font-size="14" font-style="italic" lengthAdjust="spacing" textLength="119" x="224.75" y="301.3105">SelectableChannel</text><line style="stroke:#181818;stroke-width:0.5;" x1="120" x2="416" y1="311.5137" y2="311.5137"/><ellipse cx="130" cy="326.3242" fill="#84BE84" rx="3" ry="3" style="stroke:#038048;stroke-width:1.0;"/><text fill="#000000" font-family="sans-serif" font-size="14" font-style="italic" lengthAdjust="spacing" textLength="272" x="139" y="330.6211">register(Selector, int, Object): SelectionKey</text></g><!--class ServerSocketChannel--><g id="elem_ServerSocketChannel"><rect codeLine="1" fill="#F1F1F1" height="114.4844" id="ServerSocketChannel" rx="2.5" ry="2.5" style="stroke:#181818;stroke-width:0.5;" width="328" x="187" y="680.0137"/><ellipse cx="277.75" cy="696.0137" fill="#A9DCDF" rx="11" ry="11" style="stroke:#181818;stroke-width:1.0;"/><path d="M278.1719,696.498 L275.6094,696.498 L275.0781,698.7949 Q275.0156,699.123 275.0156,699.2793 Q275.0156,699.498 275.0625,699.6543 Q275.125,699.8105 275.4063,699.8105 L275.875,699.8105 L275.875,700.748 L272.8906,700.748 L272.8906,699.8105 L273.3438,699.8105 Q273.5156,699.8105 273.6406,699.7168 Q273.7656,699.6074 273.8125,699.3105 L276.4531,688.9824 L277.8594,688.5137 L280.4375,699.2793 Q280.5469,699.5918 280.6719,699.7012 Q280.8125,699.8105 280.9844,699.8105 L281.4531,699.8105 L281.4531,700.748 L278.0625,700.748 L278.0625,699.8105 L278.5938,699.8105 Q278.8125,699.8105 278.8281,699.7637 Q278.8594,699.7012 278.8594,699.623 Q278.8594,699.4043 278.8125,699.2168 L278.1719,696.498 Z M273.6094,700.3418 L273.6094,700.3418 Z M274.2813,700.3418 L274.2813,700.3418 Z M279,700.3418 L279,700.3418 Z M280.125,700.3418 L280.125,700.3418 Z M276.9375,690.4043 L277,690.4043 L275.8906,695.5605 L277.9844,695.5605 L276.9375,690.4043 Z " fill="#000000"/><text fill="#000000" font-family="sans-serif" font-size="14" font-style="italic" lengthAdjust="spacing" textLength="138" x="298.25" y="701.8105">ServerSocketChannel</text><line style="stroke:#181818;stroke-width:0.5;" x1="188" x2="514" y1="712.0137" y2="712.0137"/><ellipse cx="198" cy="726.8242" fill="#84BE84" rx="3" ry="3" style="stroke:#038048;stroke-width:1.0;"/><text fill="#000000" font-family="sans-serif" font-size="14" lengthAdjust="spacing" text-decoration="underline" textLength="188" x="207" y="731.1211">open(): ServerSocketChannel</text><ellipse cx="198" cy="745.4453" fill="#84BE84" rx="3" ry="3" style="stroke:#038048;stroke-width:1.0;"/><text fill="#000000" font-family="sans-serif" font-size="14" font-style="italic" lengthAdjust="spacing" textLength="157" x="207" y="749.7422">accept(): SocketChannel</text><ellipse cx="198" cy="764.0664" fill="#84BE84" rx="3" ry="3" style="stroke:#038048;stroke-width:1.0;"/><text fill="#000000" font-family="sans-serif" font-size="14" lengthAdjust="spacing" textLength="278" x="207" y="768.3633">bind(SocketAddress): ServerSocketChannel</text><ellipse cx="198" cy="782.6875" fill="#84BE84" rx="3" ry="3" style="stroke:#038048;stroke-width:1.0;"/><text fill="#000000" font-family="sans-serif" font-size="14" font-style="italic" lengthAdjust="spacing" textLength="302" x="207" y="786.9844">bind(SocketAddress, int): ServerSocketChannel</text></g><!--class SocketChannel--><g id="elem_SocketChannel"><rect codeLine="1" fill="#F1F1F1" height="32" id="SocketChannel" rx="2.5" ry="2.5" style="stroke:#181818;stroke-width:0.5;" width="129" x="22.5" y="721.0137"/><ellipse cx="37.5" cy="737.0137" fill="#A9DCDF" rx="11" ry="11" style="stroke:#181818;stroke-width:1.0;"/><path d="M37.9219,737.498 L35.3594,737.498 L34.8281,739.7949 Q34.7656,740.123 34.7656,740.2793 Q34.7656,740.498 34.8125,740.6543 Q34.875,740.8105 35.1563,740.8105 L35.625,740.8105 L35.625,741.748 L32.6406,741.748 L32.6406,740.8105 L33.0938,740.8105 Q33.2656,740.8105 33.3906,740.7168 Q33.5156,740.6074 33.5625,740.3105 L36.2031,729.9824 L37.6094,729.5137 L40.1875,740.2793 Q40.2969,740.5918 40.4219,740.7012 Q40.5625,740.8105 40.7344,740.8105 L41.2031,740.8105 L41.2031,741.748 L37.8125,741.748 L37.8125,740.8105 L38.3438,740.8105 Q38.5625,740.8105 38.5781,740.7637 Q38.6094,740.7012 38.6094,740.623 Q38.6094,740.4043 38.5625,740.2168 L37.9219,737.498 Z M33.3594,741.3418 L33.3594,741.3418 Z M34.0313,741.3418 L34.0313,741.3418 Z M38.75,741.3418 L38.75,741.3418 Z M39.875,741.3418 L39.875,741.3418 Z M36.6875,731.4043 L36.75,731.4043 L35.6406,736.5605 L37.7344,736.5605 L36.6875,731.4043 Z " fill="#000000"/><text fill="#000000" font-family="sans-serif" font-size="14" font-style="italic" lengthAdjust="spacing" textLength="97" x="51.5" y="742.8105">SocketChannel</text></g><!--class AbstractSelectableChannel--><g id="elem_AbstractSelectableChannel"><rect codeLine="1" fill="#F1F1F1" height="58.6211" id="AbstractSelectableChannel" rx="2.5" ry="2.5" style="stroke:#181818;stroke-width:0.5;" width="326" x="105" y="507.0137"/><ellipse cx="178.25" cy="523.0137" fill="#A9DCDF" rx="11" ry="11" style="stroke:#181818;stroke-width:1.0;"/><path d="M178.6719,523.498 L176.1094,523.498 L175.5781,525.7949 Q175.5156,526.123 175.5156,526.2793 Q175.5156,526.498 175.5625,526.6543 Q175.625,526.8105 175.9063,526.8105 L176.375,526.8105 L176.375,527.748 L173.3906,527.748 L173.3906,526.8105 L173.8438,526.8105 Q174.0156,526.8105 174.1406,526.7168 Q174.2656,526.6074 174.3125,526.3105 L176.9531,515.9824 L178.3594,515.5137 L180.9375,526.2793 Q181.0469,526.5918 181.1719,526.7012 Q181.3125,526.8105 181.4844,526.8105 L181.9531,526.8105 L181.9531,527.748 L178.5625,527.748 L178.5625,526.8105 L179.0938,526.8105 Q179.3125,526.8105 179.3281,526.7637 Q179.3594,526.7012 179.3594,526.623 Q179.3594,526.4043 179.3125,526.2168 L178.6719,523.498 Z M174.1094,527.3418 L174.1094,527.3418 Z M174.7813,527.3418 L174.7813,527.3418 Z M179.5,527.3418 L179.5,527.3418 Z M180.625,527.3418 L180.625,527.3418 Z M177.4375,517.4043 L177.5,517.4043 L176.3906,522.5605 L178.4844,522.5605 L177.4375,517.4043 Z " fill="#000000"/><text fill="#000000" font-family="sans-serif" font-size="14" font-style="italic" lengthAdjust="spacing" textLength="171" x="198.75" y="528.8105">AbstractSelectableChannel</text><line style="stroke:#181818;stroke-width:0.5;" x1="106" x2="430" y1="539.0137" y2="539.0137"/><ellipse cx="116" cy="553.8242" fill="#84BE84" rx="3" ry="3" style="stroke:#038048;stroke-width:1.0;"/><text fill="#000000" font-family="sans-serif" font-size="14" lengthAdjust="spacing" textLength="300" x="125" y="558.1211">configureBlocking(boolean): SelectableChannel</text></g><!--reverse link Channel to AbstractChannel--><g id="link_Channel_AbstractChannel"><path codeLine="18" d="M724,183.0937 C724,201.8037 724,204.7737 724,224.7637 " fill="none" id="Channel-backto-AbstractChannel" style="stroke:#181818;stroke-width:1.0;stroke-dasharray:7.0,7.0;"/><polygon fill="none" points="724,165.0937,718,183.0937,730,183.0937,724,165.0937" style="stroke:#181818;stroke-width:1.0;"/></g><!--reverse link AbstractNioChannel to AbstractNioByteChannel--><g id="link_AbstractNioChannel_AbstractNioByteChannel"><path codeLine="19" d="M705.7824,637.9656 C698.9224,675.8456 694.66,699.3037 690.75,720.8737 " fill="none" id="AbstractNioChannel-backto-AbstractNioByteChannel" style="stroke:#181818;stroke-width:1.0;"/><polygon fill="none" points="708.99,620.2537,699.8784,636.8964,711.6864,639.0348,708.99,620.2537" style="stroke:#181818;stroke-width:1.0;"/></g><!--reverse link AbstractChannel to AbstractNioChannel--><g id="link_AbstractChannel_AbstractNioChannel"><path codeLine="20" d="M724,411.0237 C724,430.4837 724,433.2237 724,452.6837 " fill="none" id="AbstractChannel-backto-AbstractNioChannel" style="stroke:#181818;stroke-width:1.0;"/><polygon fill="none" points="724,393.0237,718,411.0237,730,411.0237,724,393.0237" style="stroke:#181818;stroke-width:1.0;"/></g><!--reverse link AbstractNioChannel to AbstractNioMessageChannel--><g id="link_AbstractNioChannel_AbstractNioMessageChannel"><path codeLine="21" d="M820.1447,632.9346 C858.3047,670.8146 887.01,699.3037 908.74,720.8737 " fill="none" id="AbstractNioChannel-backto-AbstractNioMessageChannel" style="stroke:#181818;stroke-width:1.0;"/><polygon fill="none" points="807.37,620.2537,815.9177,637.1929,824.3717,628.6764,807.37,620.2537" style="stroke:#181818;stroke-width:1.0;"/></g><!--reverse link AbstractNioMessageChannel to NioServerSocketChannel--><g id="link_AbstractNioMessageChannel_NioServerSocketChannel"><path codeLine="22" d="M914.8249,770.3396 C906.7749,798.6996 894.33,842.5737 886.27,870.9637 " fill="none" id="AbstractNioMessageChannel-backto-NioServerSocketChannel" style="stroke:#181818;stroke-width:1.0;"/><polygon fill="none" points="919.74,753.0237,909.0529,768.7012,920.5968,771.978,919.74,753.0237" style="stroke:#181818;stroke-width:1.0;"/></g><!--reverse link ServerSocketChannel to NioServerSocketChannel--><g id="link_ServerSocketChannel_NioServerSocketChannel"><path codeLine="23" d="M507.0639,799.7328 C536.0539,809.3528 549.65,812.3837 579,818.0137 C620.72,826.0237 729.02,814.8137 770,826.0137 C804.05,835.3237 839.28,856.4337 860.93,870.9537 " fill="none" id="ServerSocketChannel-backto-NioServerSocketChannel" style="stroke:#181818;stroke-width:1.0;stroke-dasharray:7.0,7.0;"/><polygon fill="none" points="489.98,794.0637,505.1742,805.4274,508.9536,794.0381,489.98,794.0637" style="stroke:#181818;stroke-width:1.0;"/></g><!--reverse link AbstractNioByteChannel to NioSocketChannel--><g id="link_AbstractNioByteChannel_NioSocketChannel"><path codeLine="24" d="M685.7742,770.9826 C683.8542,799.3426 680.94,842.5737 679.02,870.9637 " fill="none" id="AbstractNioByteChannel-backto-NioSocketChannel" style="stroke:#181818;stroke-width:1.0;"/><polygon fill="none" points="686.99,753.0237,679.7879,770.5773,691.7605,771.3878,686.99,753.0237" style="stroke:#181818;stroke-width:1.0;"/></g><!--reverse link SocketChannel to NioSocketChannel--><g id="link_SocketChannel_NioSocketChannel"><path codeLine="25" d="M108.2989,767.452 C122.2789,786.122 138.06,802.9537 169,818.0137 C244.05,854.5437 481.63,874.0137 603.83,881.8337 " fill="none" id="SocketChannel-backto-NioSocketChannel" style="stroke:#181818;stroke-width:1.0;stroke-dasharray:7.0,7.0;"/><polygon fill="none" points="97.51,753.0437,103.4961,771.0483,113.1017,763.8557,97.51,753.0437" style="stroke:#181818;stroke-width:1.0;"/></g><!--link AbstractNioChannel to ServerSocketChannel--><g id="link_AbstractNioChannel_ServerSocketChannel"><path codeLine="26" d="M602,502.5137 C550.15,502.5137 456.4087,606.0658 399.3987,675.1558 " fill="none" id="AbstractNioChannel-to-ServerSocketChannel" style="stroke:#181818;stroke-width:1.0;"/><polygon fill="#181818" points="395.58,679.7837,404.3933,675.3877,398.7623,675.9271,398.2228,670.296,395.58,679.7837" style="stroke:#181818;stroke-width:1.0;"/></g><!--link AbstractNioChannel to SocketChannel--><g id="link_AbstractNioChannel_SocketChannel"><path codeLine="27" d="M602,502.5137 C515.55,502.5137 525.55,583.9337 447,620.0137 C332.14,672.7737 285.13,630.1037 169,680.0137 C144.93,690.3637 125.2037,704.4011 109.3537,717.1611 " fill="none" id="AbstractNioChannel-to-SocketChannel" style="stroke:#181818;stroke-width:1.0;"/><polygon fill="#181818" points="104.68,720.9237,114.1989,718.3957,108.5747,717.7882,109.1822,712.1641,104.68,720.9237" style="stroke:#181818;stroke-width:1.0;"/></g><!--reverse link SelectableChannel to AbstractSelectableChannel--><g id="link_SelectableChannel_AbstractSelectableChannel"><path codeLine="30" d="M268,356.5737 C268,399.8337 268,463.5037 268,506.8337 " fill="none" id="SelectableChannel-backto-AbstractSelectableChannel" style="stroke:#181818;stroke-width:1.0;"/><polygon fill="none" points="268,338.5737,262,356.5737,274,356.5737,268,338.5737" style="stroke:#181818;stroke-width:1.0;"/></g><!--reverse link AbstractSelectableChannel to ServerSocketChannel--><g id="link_AbstractSelectableChannel_ServerSocketChannel"><path codeLine="31" d="M287.0118,582.9812 C299.3718,612.5512 311.98,642.6937 327.42,679.6237 " fill="none" id="AbstractSelectableChannel-backto-ServerSocketChannel" style="stroke:#181818;stroke-width:1.0;"/><polygon fill="none" points="280.07,566.3737,281.476,585.2952,292.5477,580.6673,280.07,566.3737" style="stroke:#181818;stroke-width:1.0;"/></g><!--reverse link AbstractSelectableChannel to SocketChannel--><g id="link_AbstractSelectableChannel_SocketChannel"><path codeLine="32" d="M229.553,579.6754 C190.533,622.4754 130.84,687.9437 100.79,720.8937 " fill="none" id="AbstractSelectableChannel-backto-SocketChannel" style="stroke:#181818;stroke-width:1.0;"/><polygon fill="none" points="241.68,566.3737,225.1191,575.6331,233.9869,583.7177,241.68,566.3737" style="stroke:#181818;stroke-width:1.0;"/></g><!--SRC=[dPBFJiGW4CRlF0LxybHwtuE9UlAWCUaJK3fkiK09VqmssOTVebkLCjjjJRWC_BvXPhxPMSSFcjFeuTa4S1ewoGEySJ7m0tZwpfK7GdRI21Kxe8pLekV6WAeVMXyS5-7fEsOsQhK8lihnyHXW2x-5VG7lKyqt9JU1bAi1zmck6SK0OHLValdGqldeXjh8yKVMW08HUAkkbuoefeR_frxL5wR3-fij06NHijCzlOG4jvrMqLQ9AaqcvTKSHiZSzONikAk88CzuJNTf5daYytr0_lWpa1AVKcT9ouxsUz7Jgi9hMC8pyDV6OgEckei7icAGY6WRJkvwcVPHWsx1UV8LWBRXE5sT0G00]--></g></svg>